<svg version="1.1" viewBox="0.0 0.0 918.6955380577427 322.49081364829397" fill="none" stroke="none" stroke-linecap="square" stroke-miterlimit="10" xmlns:xlink="http://www.w3.org/1999/xlink" xmlns="http://www.w3.org/2000/svg"><clipPath id="p.0"><path d="m0 0l918.69556 0l0 322.4908l-918.69556 0l0 -322.4908z" clip-rule="nonzero"/></clipPath><g clip-path="url(#p.0)"><path fill="#000000" fill-opacity="0.0" d="m0 0l918.69556 0l0 322.4908l-918.69556 0z" fill-rule="evenodd"/><path fill="#000000" fill-opacity="0.0" d="m-15.15748 -73.49344l1002.55115 0l0 423.40158l-1002.55115 0z" fill-rule="evenodd"/><path fill="#000000" d="m56.514393 258.17844q-23.671875 0 -38.015625 -14.828125q-14.328125 -14.84375 -16.328125 -39.171875l29.671875 -9.0q2.671873 18.328125 8.999998 27.5q6.328125 9.15625 18.671875 9.15625q9.656254 0 14.656254 -5.5q5.0 -5.5 5.0 -14.828125q0 -8.328125 -3.671875 -15.0q-3.65625 -6.671875 -11.984379 -13.671875l-33.0 -28.328125q-10.0 -8.671875 -16.84375 -19.328125q-6.828125 -10.671875 -6.828125 -27.671875q0 -15.328125 6.15625 -25.828125q6.171875 -10.5 17.34375 -16.0q11.171873 -5.5 26.171873 -5.5q24.000004 0 36.656254 14.84375q12.671875 14.828125 14.671875 35.8125l-25.328125 9.0q-1.34375 -10.0 -4.015625 -17.5q-2.65625 -7.5 -7.65625 -11.65625q-5.0 -4.171875 -13.000004 -4.171875q-8.671875 0 -13.84375 5.84375q-5.15625 5.828125 -5.15625 13.828125q0 5.0 2.15625 9.828125q2.171875 4.828125 7.515625 9.5l34.000004 31.328125q7.0 6.34375 13.15625 13.671875q6.171875 7.328125 10.171875 16.671875q4.0 9.328125 4.0 21.65625q0 16.34375 -6.671875 27.34375q-6.65625 11.0 -18.65625 16.5q-12.0 5.5 -28.000004 5.5zm76.9928 45.65625l0 -27.328125q13.0 0 20.65625 -1.171875q7.671875 -1.15625 11.0 -4.328125q3.34375 -3.171875 3.34375 -8.828125q0 -3.0 -2.34375 -13.328125q-2.328125 -10.34375 -4.984375 -22.015625l-38.671867 -163.98438l35.999992 0l26.0 143.98438l25.0 -143.98438l36.0 0l-46.0 203.32812q-3.0 14.0 -11.0 22.15625q-8.0 8.171875 -20.5 11.828125q-12.5 3.671875 -30.171875 3.671875l-4.328125 0zm133.6646 -48.328125l0 -192.65625l35.671875 0l0 19.0q9.65625 -9.0 21.328125 -15.328125q11.671875 -6.34375 25.671875 -6.34375q11.65625 0 17.828125 6.0q6.171875 6.0 8.671875 15.0q2.5 9.0 2.5 18.328125l0 156.0l-35.671875 0l0 -145.67188q0 -10.328125 -3.0 -15.984375q-3.0 -5.671875 -12.328125 -5.671875q-6.0 0 -12.5 3.5q-6.5 3.5 -12.5 8.5l0 155.32812l-35.671875 0zm197.65912 2.671875q-15.0 0 -24.171875 -5.671875q-9.15625 -5.671875 -13.328125 -16.0q-4.15625 -10.328125 -4.15625 -24.328125l0 -125.671875l-20.34375 0l0 -23.65625l20.34375 0l0 -56.34375l35.65625 0l0 56.34375l31.0 0l0 23.65625l-31.0 0l0 123.328125q0 11.34375 3.671875 16.171875q3.671875 4.828125 14.0 4.828125q2.671875 0 6.171875 -0.328125q3.5 -0.328125 6.828125 -0.671875l0 26.34375q-6.671875 1.0 -12.34375 1.5q-5.65625 0.5 -12.328125 0.5zm104.33688 0q-21.328125 0 -33.671875 -8.671875q-12.328125 -8.671875 -17.5 -24.671875q-5.15625 -16.0 -5.15625 -37.65625l0 -56.0q0 -21.671875 5.15625 -37.671875q5.171875 -16.0 17.5 -24.65625q12.34375 -8.671875 33.671875 -8.671875q21.328125 0 33.5 8.671875q12.171875 8.65625 17.328125 24.65625q5.171875 16.0 5.171875 37.671875l0 56.0q0 21.65625 -5.171875 37.65625q-5.15625 16.0 -17.328125 24.671875q-12.171875 8.671875 -33.5 8.671875zm0 -26.34375q10.328125 0 14.5 -6.0q4.171875 -6.0 5.0 -15.828125q0.828125 -9.828125 0.828125 -20.5l0 -60.328125q0 -11.0 -0.828125 -20.671875q-0.828125 -9.671875 -5.0 -15.828125q-4.171875 -6.171875 -14.5 -6.171875q-10.328125 0 -14.671875 6.171875q-4.328125 6.15625 -5.171875 15.828125q-0.828125 9.671875 -0.828125 20.671875l0 60.328125q0 10.671875 0.828125 20.5q0.84375 9.828125 5.171875 15.828125q4.34375 6.0 14.671875 6.0zm88.66437 23.671875l0 -192.65625l35.671875 0l0 19.0q9.65625 -9.0 21.328125 -15.328125q11.671875 -6.34375 25.671875 -6.34375q11.65625 0 17.828125 6.0q6.171875 6.0 8.671875 15.0q2.5 9.0 2.5 18.328125l0 156.0l-35.671875 0l0 -145.67188q0 -10.328125 -3.0 -15.984375q-3.0 -5.671875 -12.328125 -5.671875q-6.0 0 -12.5 3.5q-6.5 3.5 -12.5 8.5l0 155.32812l-35.671875 0zm143.331 48.328125l0 -27.328125q13.0 0 20.65625 -1.171875q7.671875 -1.15625 11.0 -4.328125q3.34375 -3.171875 3.34375 -8.828125q0 -3.0 -2.34375 -13.328125q-2.328125 -10.34375 -4.984375 -22.015625l-38.671875 -163.98438l36.0 0l26.0 143.98438l25.0 -143.98438l36.0 0l-46.0 203.32812q-3.0 14.0 -11.0 22.15625q-8.0 8.171875 -20.5 11.828125q-12.5 3.671875 -30.171875 3.671875l-4.328125 0z" fill-rule="nonzero"/></g></svg>